# xmcd CD database file
#
# Track frame offsets:
#	150
#	33106
#	58889
#	83538
#	110940
#	129809
#	163009
#	181930
#	202519
#	232129
#
# Disc length: 3364 seconds
#
# Revision: 1
# Processed by: cddbd v1.5.1PL2 Copyright (c) Steve Scherf et al.
# Submitted via: CDex 1.51
#
DISCID=790d220a
DTITLE=Gvidas Kovera, Todar Kaskurevic, Petras Vysniauskas, Rytis Kamicaitis - Tylos Labanoro_Cisy Labanory_Tranquilities of Labanoras
DYEAR=2005
DGENRE=Jazz
TTITLE0=Apie liudininka_Ab sviedku_About a Bystander
TTITLE1=Apie lygiadieni_Ab raunadzienstvie_About an Equinox
TTITLE2=Apie smaka_Pra jascura_About a Draco
TTITLE3=Apie akmeni_Ab kamiani_About a Boulder
TTITLE4=Apie zole_Ab ziolach_About Grass
TTITLE5=Apie zaizda_Pra ranu_About a Wound
TTITLE6=Apie moteri_Ab zancynie_About a Woman
TTITLE7=Apie veze_Ab kaliaji_About a Track
TTITLE8=Apie neturejima_Ab niemajomasci_About Having Nothing
TTITLE9=Apie desine ranka_Ab dziasnicy_About the Right Hand
EXTD=YEAR: 2005
EXTT0=
EXTT1=
EXTT2=
EXTT3=
EXTT4=
EXTT5=
EXTT6=
EXTT7=
EXTT8=
EXTT9=
PLAYORDER=
